<svg width="58" height="68" viewBox="0 0 58 68" fill="none" xmlns="http://www.w3.org/2000/svg">
<path d="M23.2259 0C15.525 0 7.82411 0 0.123214 0V2.49919L42.3549 45.752L45.9127 42.3175L9.59531 4.95237H23.2259C42.9094 4.95237 52.2737 19.0122 52.5663 33.1794C52.8589 47.7299 43.51 62.863 23.2259 62.863H5.39062V25.4365L34.0996 54.3535L37.6266 50.8883L5.39062 18.4142L0 12.7719L0.138616 67.9073C7.83951 67.9073 15.5404 67.9073 23.2413 67.9073C47.1141 67.9073 58.2341 50.4437 57.8337 33.1794C57.4333 16.4977 46.3132 0 23.2259 0Z" fill="#FF6701"/>
</svg>
