<svg width="207" height="113" viewBox="0 0 207 113" fill="none" xmlns="http://www.w3.org/2000/svg">
<path d="M41.785 96.8243H41.246V103.755H41.785V96.8243Z" fill="white"/>
<path d="M57.0328 99.8448C56.1241 99.6148 55.6929 99.2162 55.6929 98.5722C55.6929 97.6829 56.3705 97.223 57.0482 97.223C57.8491 97.223 58.419 97.7903 58.4652 98.6182V98.6335L59.0042 98.6029V98.5876C58.958 97.4683 58.1417 96.6863 57.0482 96.6863C56.2935 96.6863 55.1538 97.1923 55.1538 98.5876C55.1538 99.4615 55.7391 100.059 56.8788 100.366C58.4498 100.765 58.7424 101.163 58.7424 101.777C58.7424 102.559 58.0801 103.402 57.0174 103.402C56.5708 103.402 55.508 103.233 55.3848 101.715V101.7L54.8458 101.731V101.746C54.9998 103.785 56.54 103.939 57.002 103.939C57.8491 103.939 58.3728 103.555 58.6808 103.233C59.0504 102.835 59.2661 102.298 59.2661 101.777C59.2969 100.964 58.9118 100.351 57.0328 99.8448Z" fill="white"/>
<path d="M75.5766 96.625C74.6371 96.625 73.7283 96.993 73.0507 97.6523C72.3422 98.3422 71.9417 99.2775 71.9417 100.305C71.9417 101.24 72.3114 102.145 72.9737 102.819C73.6667 103.525 74.6063 103.923 75.6382 103.923C76.5777 103.923 77.4864 103.555 78.1641 102.896C78.8725 102.206 79.273 101.271 79.273 100.243C79.273 99.3082 78.9033 98.4036 78.2411 97.7289C77.548 97.0236 76.5931 96.625 75.5766 96.625ZM78.7185 100.274C78.7185 102.221 77.1475 103.387 75.6228 103.387C73.6513 103.387 72.4808 101.823 72.4808 100.305C72.4808 98.3422 74.0518 97.177 75.5766 97.177C77.3324 97.1616 78.7185 98.5262 78.7185 100.274Z" fill="white"/>
<path d="M94.9828 99.9215C95.1522 99.8602 95.4603 99.6762 95.5527 99.5842C95.6451 99.4922 95.8915 99.2162 95.8915 98.5569C95.8915 97.6983 95.2138 96.8243 94.0741 96.8243H92.3337V103.755H94.3513C95.3062 103.755 96.292 103.003 96.292 101.746C96.292 101.102 95.9839 100.657 95.7221 100.397C95.4449 100.105 95.1522 99.9522 94.9828 99.9215ZM92.8728 100.351H94.4591C95.26 100.351 95.7529 101.071 95.7529 101.746C95.7529 102.666 95.029 103.203 94.3359 103.203H92.8728V100.351ZM94.3359 99.8142H92.8728V97.361H94.0741C94.875 97.361 95.3524 97.9743 95.3524 98.5722C95.3524 99.2929 94.8288 99.7222 94.3359 99.8142Z" fill="white"/>
<path d="M114.466 101.24C114.466 102.559 113.419 103.356 112.402 103.356C111.078 103.356 110.277 102.313 110.277 101.286V96.8243H109.738V101.317C109.738 102.589 110.739 103.893 112.402 103.893C113.681 103.893 115.005 102.896 115.005 101.24V96.8243H114.466V101.24Z" fill="white"/>
<path d="M129.252 96.8243H128.713V103.755H129.252V96.8243Z" fill="white"/>
<path d="M143.483 96.8243H142.944V103.739H147.133V103.203H143.483V96.8243Z" fill="white"/>
<path d="M164.229 97.821C163.567 97.177 162.689 96.809 161.765 96.809H160.025V103.739H161.765C163.69 103.739 165.261 102.175 165.261 100.274C165.261 99.3389 164.892 98.4803 164.229 97.821ZM161.765 103.203H160.564V97.3457H161.765C163.398 97.3457 164.722 98.6489 164.722 100.259C164.707 101.884 163.382 103.203 161.765 103.203Z" fill="white"/>
<path d="M102.237 31.6155C88.6835 31.6155 77.779 41.9955 77.779 56.3467C77.779 71.5718 88.6989 80.9859 102.237 80.9859C109.938 80.9859 118.316 77.8887 122.999 71.7711L119.595 69.0573C115.991 73.8103 108.583 76.3402 102.252 76.3402C92.3183 76.3402 83.6317 69.8392 82.6614 58.5852H126.033C127.866 39.8643 115.775 31.6155 102.237 31.6155ZM82.646 54.4148C83.7241 42.6702 92.2875 35.9852 102.237 35.9852C113.835 35.9852 121.628 42.5782 121.72 54.4148H82.646Z" fill="white"/>
<path d="M102.237 81.0625C95.4911 81.0625 89.315 78.7013 84.8792 74.4389C82.6152 72.2617 80.844 69.6399 79.6272 66.6654C78.3489 63.5376 77.702 60.0724 77.702 56.362C77.702 49.4777 80.2433 43.1454 84.8792 38.5611C89.4228 34.038 95.5989 31.5541 102.237 31.5541C109.876 31.5541 116.438 34.13 120.704 38.8217C122.783 41.1062 124.308 43.8814 125.232 47.0552C126.218 50.459 126.51 54.3381 126.079 58.6005V58.6619H82.723C83.6625 69.0419 91.6714 76.2788 102.237 76.2788C108.105 76.2788 115.729 74.0403 119.533 69.0266L119.579 68.9652L123.091 71.7711L123.045 71.8171C120.827 74.7149 117.623 77.1068 113.773 78.732C110.184 80.2652 106.195 81.0625 102.237 81.0625ZM102.237 31.6768C88.3292 31.6768 77.8406 42.2868 77.8406 56.3467C77.8406 70.8205 87.8672 80.9245 102.237 80.9245C110.646 80.9245 118.548 77.4287 122.906 71.7864L119.595 69.1492C117.885 71.3724 115.252 73.2277 111.956 74.5309C108.921 75.7268 105.471 76.3861 102.237 76.3861C97.2315 76.3861 92.5493 74.7302 89.0377 71.7097C85.2797 68.4899 83.0464 63.9362 82.5844 58.5699V58.4932H125.956C126.741 50.3823 124.893 43.5901 120.611 38.883C116.36 34.2526 109.846 31.6768 102.237 31.6768ZM121.797 54.4761H82.569V54.3994C83.0772 48.7878 85.3259 44.0654 89.0531 40.7383C92.5493 37.6258 97.2161 35.9085 102.222 35.9085C108.028 35.9085 112.91 37.5644 116.33 40.7076C119.857 43.9427 121.736 48.6804 121.782 54.4148L121.797 54.4761ZM82.723 54.3534H121.659C121.535 43.0688 114.096 36.0619 102.237 36.0619C91.5944 36.0465 83.7549 43.4061 82.723 54.3534Z" fill="white"/>
<path d="M32.852 12.4039C25.1511 12.4039 17.4502 12.4039 9.74933 12.4039V14.9031L51.981 58.1559L55.5388 54.7214L19.2214 17.3563H32.852C52.5355 17.3563 61.8998 31.4161 62.1924 45.5833C62.485 60.1338 53.1362 75.2669 32.852 75.2669H15.0167V37.8404L43.7257 66.7574L47.2527 63.2923L15.0167 30.8182L9.62612 25.1758L9.76473 80.3113C17.4656 80.3113 25.1665 80.3113 32.8674 80.3113C56.7402 80.3113 67.8603 62.8476 67.4598 45.5833C67.0594 28.9016 55.9393 12.4039 32.852 12.4039Z" fill="white"/>
<path d="M32.852 80.3879H9.68772V80.3266L9.54911 25.0225L15.0629 30.7875L47.3451 63.3076L43.7103 66.8494L15.0783 38.0091V75.2055H32.852C41.477 75.2055 48.7929 72.3997 54.0295 67.0947C59.3431 61.6977 62.2848 53.8628 62.1154 45.5833C61.8228 31.5695 52.6587 17.4176 32.852 17.4176H19.3908L55.6312 54.7368L51.9656 58.2632L9.68772 14.9491V12.3426H32.852C43.5408 12.3426 52.4893 15.9304 58.7116 22.692C64.1792 28.641 67.3058 36.7671 67.506 45.5833C67.6138 50.3057 66.89 54.8594 65.3344 59.1218C63.7172 63.5989 61.2837 67.5087 58.1109 70.7438C55.1384 73.7643 51.5806 76.1255 47.5145 77.7507C43.1404 79.4986 38.2118 80.3879 32.852 80.3879ZM9.81094 80.2499H32.8366C43.1404 80.2499 51.8424 76.9381 58.0031 70.6518C64.1638 64.3809 67.583 55.2427 67.3674 45.5833C66.9824 29.1009 56.1549 12.4653 32.8366 12.4653H9.81094V14.8724L51.9656 58.0486L55.4464 54.7368L19.0674 17.295H32.852C41.9545 17.295 49.5629 20.3461 54.8458 26.1264C59.4663 31.1861 62.1 38.1011 62.254 45.5986C62.4234 53.9088 59.4509 61.7897 54.1219 67.202C51.596 69.7625 48.5926 71.7558 45.1888 73.1203C41.5078 74.6076 37.3493 75.3589 32.852 75.3589H14.9397V37.6718L43.7103 66.6654L47.1449 63.2923L14.9705 30.8642L9.68772 25.3445L9.81094 80.2499Z" fill="white"/>
<path d="M165.831 54.5221H150.106V54.6601H165.831V54.5221Z" fill="white"/>
<path d="M165.831 52.4982H150.106V56.684H165.831V52.4982Z" fill="white"/>
<path d="M165.893 56.7453H150.029V52.4216H165.893V56.7453ZM150.167 56.6073H165.754V52.5596H150.167V56.6073Z" fill="white"/>
<path d="M157.56 26.4791L136.906 79.9279L141.388 79.9893L159.67 32.6734L157.56 26.4791Z" fill="white"/>
<path d="M141.435 80.0659L136.814 79.9892L136.845 79.8972L157.56 26.2644L159.732 32.658L159.717 32.6734L141.435 80.0659ZM137.014 79.8512L141.342 79.9126L159.593 32.658L157.56 26.6784L137.014 79.8512Z" fill="white"/>
<path d="M141.65 80.3726L136.383 80.2959L157.591 25.3905L160.071 32.6887L160.025 32.8114L141.65 80.3726ZM137.446 79.56L141.142 79.6213L159.285 32.6581L157.545 27.5524L137.446 79.56Z" fill="white"/>
<path d="M141.696 80.4339L136.275 80.3572L136.306 80.2652L157.591 25.1912L160.132 32.6887L160.071 32.842L141.696 80.4339ZM136.475 80.2192L141.604 80.2959L159.963 32.7807L160.009 32.6734L157.606 25.5745L136.475 80.2192ZM141.188 79.6826L137.353 79.6213L137.384 79.5293L157.545 27.353L159.347 32.6581L159.331 32.6734L141.188 79.6826ZM137.553 79.4986L141.096 79.5446L159.208 32.6581L157.545 27.7517L137.553 79.4986Z" fill="white"/>
<path d="M176.119 27.537L173.316 19.7482L171.129 25.0379L183.713 57.7879L192.261 79.9433L196.357 79.928L176.119 27.537Z" fill="white"/>
<path d="M192.214 80.02L183.651 57.8186L171.052 25.0379L171.068 25.0072L173.332 19.5642L176.181 27.5217L196.45 79.9893L192.214 80.02ZM171.191 25.0379L183.774 57.7726L192.307 79.882L196.25 79.8666L176.042 27.5677L173.316 19.9475L171.191 25.0379Z" fill="white"/>
<path d="M192.014 80.3112L183.374 57.9106L170.729 25.0225L173.347 18.7209L176.458 27.4144L196.896 80.2959L192.014 80.3112ZM171.53 25.0378L184.067 57.6499L192.522 79.5753L195.818 79.56L175.765 27.6597L173.301 20.7754L171.53 25.0378Z" fill="white"/>
<path d="M191.968 80.3879L183.312 57.9566L170.652 25.0379L173.347 18.5522L176.52 27.3991L196.989 80.3573L191.968 80.3879ZM170.79 25.0379L183.435 57.8953L192.06 80.2499L196.789 80.2346L176.397 27.4451L173.347 18.9202L170.79 25.0379ZM192.476 79.6366L184.005 57.6806L171.453 25.0379L173.301 20.5915L175.827 27.6444L195.911 79.6213L192.476 79.6366ZM171.591 25.0379L184.128 57.6346L192.569 79.514L195.726 79.4987L175.704 27.6904L173.301 20.9748L171.591 25.0379Z" fill="white"/>
<path d="M162.674 21.8333L159.578 13.1859L157.144 19.0582L171.114 55.3807L180.586 79.9432L185.114 79.9279L162.674 21.8333Z" fill="white"/>
<path d="M180.54 80.0199L171.052 55.4114L157.067 19.0582L159.578 13.0172L162.735 21.818L185.222 80.0046L180.54 80.0199ZM157.221 19.0582L171.175 55.35L180.632 79.8819L185.022 79.8666L162.612 21.864L159.578 13.3852L157.221 19.0582Z" fill="white"/>
<path d="M180.34 80.3112L170.76 55.5033L156.744 19.0428L159.609 12.1586L163.028 21.6953L185.669 80.2806L180.34 80.3112ZM157.545 19.0582L171.468 55.2427L180.848 79.5753L184.59 79.5599L162.335 21.956L159.562 14.2131L157.545 19.0582Z" fill="white"/>
<path d="M180.293 80.3879L170.713 55.534L156.682 19.0429L156.698 19.0122L159.624 11.9746L163.105 21.68L185.776 80.3572L180.293 80.3879ZM156.821 19.0429L170.837 55.4727L180.386 80.2346L185.561 80.2039L162.966 21.7107L159.609 12.3426L156.821 19.0429ZM180.802 79.6366L171.406 55.258L157.483 19.0429L157.499 19.0122L159.578 14.0138L162.412 21.91L184.698 79.6059L180.802 79.6366ZM157.622 19.0582L171.53 55.2121L180.894 79.4986L184.498 79.4833L162.273 21.9714L159.547 14.4125L157.622 19.0582Z" fill="white"/>
</svg>
