<svg width="1920" height="290" viewBox="0 0 1920 290" fill="none" xmlns="http://www.w3.org/2000/svg">
<path d="M-66.4066 68.6272C3.94409 44.779 185.771 7.8142 350.273 50.7411C555.901 104.4 758.077 158.058 1022.88 113.343C1287.68 68.6272 1404.05 41.798 1680.69 68.6272C1902 90.0907 1977.38 55.7094 1987.41 35.8359" stroke="#191919"/>
<path d="M1987.41 68.6272C1917.06 44.779 1735.23 7.8142 1570.73 50.7411C1365.1 104.4 1162.92 158.058 898.121 113.343C633.32 68.6272 516.946 41.798 240.309 68.6272C19.0006 90.0907 -56.3799 55.7094 -66.4065 35.8359" stroke="#191919"/>
<path d="M-66.4066 92.3728C3.94409 116.221 185.771 153.186 350.273 110.259C555.901 56.6004 758.077 2.94182 1022.88 47.6573C1287.68 92.3728 1404.05 119.202 1680.69 92.3728C1902 70.9093 1977.38 105.291 1987.41 125.164" stroke="#191919"/>
<path d="M1987.41 117.627C1917.06 93.779 1735.23 56.8142 1570.73 99.7411C1365.1 153.4 1162.92 207.058 898.121 162.343C633.32 117.627 516.946 90.798 240.309 117.627C19.0006 139.091 -56.3799 104.709 -66.4065 84.8359" stroke="#191919"/>
<path d="M-66.4066 92.3728C3.94409 116.221 185.771 153.186 350.273 110.259C555.901 56.6004 758.077 2.94182 1022.88 47.6573C1287.68 92.3728 1404.05 119.202 1680.69 92.3728C1902 70.9093 1977.38 105.291 1987.41 125.164" stroke="#191919"/>
<path d="M1987.41 68.6273C1917.06 44.779 1955.72 304.5 1570.73 50.7412C1396.44 -64.1387 1162.92 158.058 898.121 113.343C633.32 68.6273 616.229 -86.4999 228.99 68.6273C42.6257 143.285 -56.3799 55.7096 -66.4065 35.8361" stroke="#191919"/>
<path d="M-75 191.373C-4.64929 215.221 20.6011 30.5001 341.68 209.259C524.959 311.298 814.413 -40.5 1014.29 146.657C1204.03 324.33 1244.08 295 1672.1 191.373C1887.44 139.236 1968.79 204.291 1978.81 224.164" stroke="#191919"/>
<path d="M-57.8133 250.955C12.5374 274.803 194.364 311.768 358.867 268.841C564.495 215.182 766.671 161.524 1031.47 206.239C1296.27 250.955 1412.65 277.784 1689.28 250.955C1910.59 229.491 1985.97 263.872 1996 283.746" stroke="#191919"/>
<path d="M1996 250.955C1925.65 274.803 1743.82 311.768 1579.32 268.841C1373.69 215.182 1171.52 161.524 906.715 206.239C641.913 250.955 525.539 277.784 248.903 250.955C27.5939 229.491 -47.7866 263.872 -57.8132 283.746" stroke="#191919"/>
</svg>
